<svg height="480pt" viewBox="0 0 480 480" width="480pt" xmlns="http://www.w3.org/2000/svg"><path d="m208 440v-304c-.027344-22.082031-17.917969-39.972656-40-40h-128c-22.082031.027344-39.9726562 17.917969-40 40v304c.0273438 22.082031 17.917969 39.972656 40 40h128c22.082031-.027344 39.972656-17.917969 40-40zm-192-304c0-13.253906 10.746094-24 24-24h128c13.253906 0 24 10.746094 24 24v104h-176zm0 304v-184h176v184c0 13.253906-10.746094 24-24 24h-128c-13.253906 0-24-10.746094-24-24zm0 0"/><path d="m472 288h-112v-72c0-8.835938 7.164062-16 16-16s16 7.164062 16 16v8c0 4.417969 3.582031 8 8 8s8-3.582031 8-8v-8c0-17.671875-14.328125-32-32-32s-32 14.328125-32 32v40h-16v-8c0-4.417969-3.582031-8-8-8s-8 3.582031-8 8v16c0 4.417969 3.582031 8 8 8h24v16h-112c-4.417969 0-8 3.582031-8 8v176c0 4.417969 3.582031 8 8 8h240c4.417969 0 8-3.582031 8-8v-176c0-4.417969-3.582031-8-8-8zm-232 16h224v16h-224zm0 32h104v128h-104zm224 128h-104v-128h104zm0 0"/><path d="m320 368c-4.417969 0-8 3.582031-8 8v32c0 4.417969 3.582031 8 8 8s8-3.582031 8-8v-32c0-4.417969-3.582031-8-8-8zm0 0"/><path d="m384 416c4.417969 0 8-3.582031 8-8v-32c0-4.417969-3.582031-8-8-8s-8 3.582031-8 8v32c0 4.417969 3.582031 8 8 8zm0 0"/><path d="m72 272h-32c-4.417969 0-8 3.582031-8 8s3.582031 8 8 8h32c4.417969 0 8-3.582031 8-8s-3.582031-8-8-8zm0 0"/><path d="m72 208h-32c-4.417969 0-8 3.582031-8 8s3.582031 8 8 8h32c4.417969 0 8-3.582031 8-8s-3.582031-8-8-8zm0 0"/><path d="m472 0h-240c-4.417969 0-8 3.582031-8 8v136c0 4.417969 3.582031 8 8 8h240c4.417969 0 8-3.582031 8-8v-136c0-4.417969-3.582031-8-8-8zm-232 16h104v120h-104zm224 120h-104v-120h104zm0 0"/><path d="m384 120c4.417969 0 8-3.582031 8-8v-32c0-4.417969-3.582031-8-8-8s-8 3.582031-8 8v32c0 4.417969 3.582031 8 8 8zm0 0"/><path d="m320 72c-4.417969 0-8 3.582031-8 8v32c0 4.417969 3.582031 8 8 8s8-3.582031 8-8v-32c0-4.417969-3.582031-8-8-8zm0 0"/></svg>