<?xml version="1.0" encoding="iso-8859-1"?>
<!-- Generator: Adobe Illustrator 19.0.0, SVG Export Plug-In . SVG Version: 6.00 Build 0)  -->
<svg version="1.1" id="Capa_1" xmlns="http://www.w3.org/2000/svg" xmlns:xlink="http://www.w3.org/1999/xlink" x="0px" y="0px"
	 viewBox="0 0 496 496" style="enable-background:new 0 0 496 496;" xml:space="preserve">
<g>
	<g>
		<path d="M464,328v-43.672c0-118.264-94.176-217.072-209.936-220.248c-58.968-1.576-114.528,20.08-156.68,61.096
			C55.216,166.192,32,221.176,32,280v48H0v45.232l30.184,13.2C99.28,416.672,172.56,432,248,432s148.72-15.328,217.816-45.56
			L496,373.232V328H464z M395.392,147C387.912,177.024,384,207.864,384,238.792V264h-32v-40.448
			c0-34.568,6.016-68.408,17.792-100.768C379,130.088,387.544,138.216,395.392,147z M253.624,80.08
			c8.864,0.24,17.576,1.152,26.128,2.568L264.64,264h-33.28L216.232,82.496C228.456,80.56,240.96,79.704,253.624,80.08z
			 M108.536,136.648c5.504-5.36,11.28-10.32,17.256-14.952c12.04,32.68,18.208,66.88,18.208,101.856V264h-32v-25.208
			c0-31.528-4.048-62.928-11.824-93.464C102.88,142.376,105.64,139.464,108.536,136.648z M480,362.768l-20.592,9.016
			C392.344,401.128,321.216,416,248,416s-144.344-14.872-211.408-44.216L16,362.768V344h24h8h352v-16H48v-48
			c0-43.616,13.824-84.936,39.36-119.176c5.624,25.6,8.64,51.736,8.64,77.968V280h64v-56.448c0-38.336-7.04-75.792-20.752-111.48
			c18.824-12.264,39.464-21.152,61.2-26.424L216.64,280h62.72l16.168-194.064c21.888,5.544,42.4,14.824,60.848,27.136
			C342.912,148.472,336,185.584,336,223.552V280h64v-41.208c0-25.536,2.848-51.008,8.192-75.984
			C433.144,196.944,448,239.088,448,284.328V328h-32v16h32h8h24V362.768z"/>
	</g>
</g>
<g>
</g>
<g>
</g>
<g>
</g>
<g>
</g>
<g>
</g>
<g>
</g>
<g>
</g>
<g>
</g>
<g>
</g>
<g>
</g>
<g>
</g>
<g>
</g>
<g>
</g>
<g>
</g>
<g>
</g>
</svg>
